<svg width="23" height="23" viewBox="0 0 23 23" fill="none" xmlns="http://www.w3.org/2000/svg">
<path d="M22 3.33333L19.6667 11.5H6.10616M20.8333 16.1667H6.83333L4.5 1H1M10.9167 5.66667L13.25 8M13.25 8L15.5833 5.66667M13.25 8V1M8 20.8333C8 21.4777 7.47766 22 6.83333 22C6.18901 22 5.66667 21.4777 5.66667 20.8333C5.66667 20.189 6.18901 19.6667 6.83333 19.6667C7.47766 19.6667 8 20.189 8 20.8333ZM20.8333 20.8333C20.8333 21.4777 20.311 22 19.6667 22C19.0223 22 18.5 21.4777 18.5 20.8333C18.5 20.189 19.0223 19.6667 19.6667 19.6667C20.311 19.6667 20.8333 20.189 20.8333 20.8333Z" stroke="#712573" stroke-width="2" stroke-linecap="round" stroke-linejoin="round"/>
</svg>
