<svg width="37" height="37" viewBox="0 0 37 37" fill="none" xmlns="http://www.w3.org/2000/svg">
<path d="M1.03433 1.03433C1.69682 0.37205 2.59522 0 3.53197 0C4.46872 0 5.36713 0.37205 6.02961 1.03433L18.5213 13.5261L31.013 1.03433C31.6793 0.390819 32.5717 0.0347407 33.498 0.0427897C34.4242 0.0508387 35.3103 0.422372 35.9653 1.07737C36.6203 1.73236 36.9918 2.61842 36.9999 3.54469C37.0079 4.47095 36.6518 5.36333 36.0083 6.02961L23.5166 18.5213L36.0083 31.013C36.6518 31.6793 37.0079 32.5717 36.9999 33.498C36.9918 34.4242 36.6203 35.3103 35.9653 35.9653C35.3103 36.6203 34.4242 36.9918 33.498 36.9999C32.5717 37.0079 31.6793 36.6518 31.013 36.0083L18.5213 23.5166L6.02961 36.0083C5.36333 36.6518 4.47095 37.0079 3.54469 36.9999C2.61842 36.9918 1.73236 36.6203 1.07737 35.9653C0.422372 35.3103 0.0508387 34.4242 0.0427897 33.498C0.0347407 32.5717 0.390819 31.6793 1.03433 31.013L13.5261 18.5213L1.03433 6.02961C0.37205 5.36713 0 4.46872 0 3.53197C0 2.59522 0.37205 1.69682 1.03433 1.03433Z" fill="#712573"/>
</svg>
