<svg width="16" height="26" viewBox="0 0 16 26" fill="none" xmlns="http://www.w3.org/2000/svg">
<path fill-rule="evenodd" clip-rule="evenodd" d="M14.2254 25.2069C13.8044 25.4882 13.3094 25.6385 12.803 25.6386C12.1239 25.6384 11.4727 25.3686 10.9926 24.8883L0.749742 14.6455C0.269682 14.1652 0 13.514 0 12.835C0 12.156 0.269682 11.5048 0.749742 11.0246L10.9926 0.781756C11.2288 0.537182 11.5114 0.342101 11.8238 0.207896C12.1362 0.0736918 12.4722 0.00305128 12.8122 9.6685e-05C13.1522 -0.00285791 13.4894 0.0619319 13.8041 0.190687C14.1188 0.319442 14.4047 0.509583 14.6452 0.750015C14.8856 0.990447 15.0758 1.27636 15.2045 1.59106C15.3333 1.90576 15.3981 2.24295 15.3951 2.58296C15.3921 2.92297 15.3215 3.25899 15.1873 3.57141C15.0531 3.88382 14.858 4.16638 14.6134 4.4026L6.18101 12.835L14.6134 21.2675C14.9715 21.6256 15.2152 22.0818 15.314 22.5785C15.4128 23.0751 15.3621 23.5899 15.1683 24.0577C14.9745 24.5256 14.6464 24.9255 14.2254 25.2069Z" fill="#712573"/>
</svg>
