<svg width="16" height="26" viewBox="0 0 16 26" fill="none" xmlns="http://www.w3.org/2000/svg">
<path fill-rule="evenodd" clip-rule="evenodd" d="M15.3953 12.8521C15.3953 12.1722 15.1256 11.5202 14.6456 11.0394L4.40274 0.78337C4.16652 0.538482 3.88396 0.34315 3.57154 0.208773C3.25912 0.0743968 2.92311 0.00366555 2.5831 0.000707161C2.24309 -0.00225122 1.9059 0.0626218 1.59119 0.191542C1.27649 0.320462 0.990581 0.510847 0.750149 0.751588C0.509717 0.992329 0.319573 1.2786 0.190819 1.59371C0.0620636 1.90882 -0.0027262 2.24644 0.000228389 2.58689C0.00318298 2.92734 0.073826 3.26378 0.20803 3.5766C0.342235 3.88942 0.537312 4.17234 0.781886 4.40886L9.21432 12.8521L0.781886 21.2954C0.315432 21.7789 0.0573266 22.4266 0.0631609 23.0989C0.0689953 23.7712 0.338305 24.4142 0.813082 24.8896C1.28786 25.365 1.93012 25.6347 2.60153 25.6405C3.27294 25.6464 3.91978 25.3879 4.40274 24.9209L14.6456 14.6649C15.1256 14.184 15.3953 13.532 15.3953 12.8521Z" fill="#712573"/>
</svg>
